<?xml version="1.0" encoding="utf-8"?>
<!-- Svg Vector Icons : http://www.onlinewebfonts.com/icon -->
<!DOCTYPE svg PUBLIC "-//W3C//DTD SVG 1.1//EN" "http://www.w3.org/Graphics/SVG/1.1/DTD/svg11.dtd">
<svg version="1.1" xmlns="http://www.w3.org/2000/svg" xmlns:xlink="http://www.w3.org/1999/xlink" x="0px" y="0px" viewBox="0 0 1000 1000" enable-background="new 0 0 1000 1000" xml:space="preserve">
<metadata> Svg Vector Icons : http://www.onlinewebfonts.com/icon </metadata>
<g><g transform="translate(0.000000,511.000000) scale(0.100000,-0.100000)"><path d="M100,110v-3655.9h4900h4900V110v3655.9H5000H100V110z M9096.1,110v-2832.8H5000H903.9V110v2832.8H5000h4096.1V110z"/><path d="M2475.4,764.6c-285.2-354.1-514.9-654.6-511.1-668c5.7-13.4,239.3-308.2,518.7-656.5c352.2-436.4,516.8-627.8,532.1-616.3c168.4,128.2,606.8,486.2,606.8,495.7c0,5.7-137.8,183.8-306.3,392.4C3147.2-77.6,3009.4,100.4,3009.4,110c0,7.7,114.8,157,254.6,329.2c137.8,172.3,279.5,348.4,313.9,390.5l59.3,76.6l-296.7,237.3c-164.6,132.1-310.1,245-321.6,252.7C3001.7,1405.8,2821.8,1197.2,2475.4,764.6z"/><path d="M6686.3,1164.6c-170.3-135.9-310.1-254.6-310.1-264.1c0-7.7,135.9-181.8,298.6-384.7c164.6-202.9,302.4-380.9,308.2-394.3c5.8-13.4-128.2-197.1-296.7-407.7c-170.3-210.5-308.2-388.6-308.2-394.3c0-9.6,557-467,608.7-499.6c17.2-11.5,1024,1213.5,1048.9,1276.7c5.8,17.2-901.5,1173.3-1014.5,1292C7002.1,1407.7,6938.9,1365.6,6686.3,1164.6z"/></g></g>
</svg>